<?xml version="1.0" encoding="iso-8859-1"?>
<!-- Uploaded to: SVG Repo, www.svgrepo.com, Generator: SVG Repo Mixer Tools -->
<svg height="800px" width="800px" version="1.1" id="Layer_1" xmlns="http://www.w3.org/2000/svg" xmlns:xlink="http://www.w3.org/1999/xlink" 
	 viewBox="0 0 280.063 280.063" xml:space="preserve">
<g>
	<path style="fill:#324D5B;" d="M96.357,131.377c0-35.511,26.235-49.232,52.146-64.704c26.086-15.594,44.139-30.803,44.026-66.638
		L209.951,0c0.149,42.529-22.612,61.177-49.687,77.34c-24.502,14.631-46.756,25.194-46.738,54.037H96.357z"/>
	<path style="fill:#EBEBEB;" d="M17.52,131.298h245.024c9.661,0,17.502,7.832,17.502,17.502v113.761
		c0,9.67-7.841,17.502-17.502,17.502H17.52c-9.661,0-17.502-7.832-17.502-17.502V148.8C0.018,139.13,7.859,131.298,17.52,131.298z"
		/>
	<path style="fill:#324D5B;" d="M48.148,192.545h13.126v-13.126c0-7.246,5.881-13.126,13.126-13.126
		c7.246,0,13.126,5.881,13.126,13.126v13.126h13.126c7.246,0,13.126,5.881,13.126,13.126c0,7.246-5.881,13.126-13.126,13.126H87.527
		v13.126c0,7.246-5.881,13.126-13.126,13.126c-7.246,0-13.126-5.872-13.126-13.126v-13.126H48.148
		c-7.246,0-13.126-5.881-13.126-13.126S40.902,192.545,48.148,192.545z"/>
	<path style="fill:#E2574C;" d="M183.786,210.047c9.661,0,17.502,7.841,17.502,17.502c0,9.67-7.841,17.502-17.502,17.502
		s-17.502-7.832-17.502-17.502C166.285,217.888,174.124,210.047,183.786,210.047z"/>
	<path style="fill:#3DB39E;" d="M227.54,166.292c9.661,0,17.502,7.841,17.502,17.502c0,9.67-7.841,17.502-17.502,17.502
		s-17.502-7.832-17.502-17.502C210.038,174.133,217.88,166.292,227.54,166.292z"/>
</g>
</svg>